<svg id="svg" version="1.1" xmlns="http://www.w3.org/2000/svg" xmlns:xlink="http://www.w3.org/1999/xlink" width="400" height="533" viewBox="0, 0, 400,533"><g id="svgg"><path id="path0" d="M170.600 10.637 C 156.851 11.695,151.999 12.739,141.703 16.854 C 138.950 17.955,134.496 19.636,131.806 20.590 C 124.470 23.192,110.447 31.700,103.955 37.486 C 102.281 38.979,99.789 41.170,98.419 42.355 C 89.463 50.104,75.860 69.030,72.369 78.600 C 71.646 80.580,69.636 85.862,67.902 90.337 C 62.679 103.813,62.369 105.897,62.383 127.466 C 62.395 148.118,63.043 152.931,67.119 162.668 C 68.208 165.270,70.046 170.010,71.202 173.200 C 73.781 180.316,74.475 181.714,78.118 187.124 C 79.703 189.479,81.896 192.844,82.991 194.603 C 85.084 197.966,92.584 207.154,98.060 213.065 C 104.582 220.105,109.600 227.574,109.600 230.243 C 109.600 232.743,103.273 239.698,89.200 252.668 C 76.700 264.187,64.702 276.680,61.189 281.834 C 60.452 282.915,58.721 285.286,57.343 287.102 C 55.965 288.918,54.175 291.618,53.366 293.102 C 52.556 294.586,50.625 298.050,49.074 300.800 C 44.168 309.499,42.872 312.279,41.191 317.708 C 40.290 320.619,38.317 326.690,36.807 331.200 C 31.923 345.788,31.383 349.835,31.444 371.400 C 31.518 397.915,31.734 399.060,42.654 431.007 C 43.182 432.551,45.095 436.467,46.907 439.709 C 48.718 442.951,51.219 447.448,52.466 449.702 C 55.324 454.873,63.426 466.046,67.946 471.053 C 69.846 473.156,72.042 475.651,72.828 476.596 C 75.199 479.450,86.091 488.721,92.539 493.373 C 100.816 499.346,102.004 500.115,106.600 502.475 C 108.800 503.604,112.180 505.504,114.112 506.696 C 119.063 509.752,122.565 511.280,129.000 513.193 C 132.080 514.109,137.325 515.821,140.657 516.997 C 153.988 521.705,159.277 522.399,181.800 522.399 C 205.714 522.398,211.029 521.817,222.292 517.971 C 225.542 516.861,231.606 514.887,235.769 513.582 C 243.492 511.163,247.020 509.719,250.590 507.519 C 251.696 506.838,255.095 504.957,258.144 503.339 C 263.208 500.653,273.968 493.382,279.561 488.868 C 285.400 484.156,296.192 474.730,304.600 466.999 C 307.240 464.571,310.835 461.328,312.588 459.792 C 314.342 458.257,316.502 456.274,317.388 455.386 C 318.275 454.499,320.530 452.431,322.400 450.792 C 324.270 449.152,328.410 445.369,331.600 442.385 C 338.074 436.329,346.406 428.710,354.770 421.200 C 357.833 418.450,360.668 415.814,361.069 415.342 C 361.471 414.870,363.960 412.605,366.600 410.308 C 385.871 393.540,390.580 385.737,391.083 369.732 C 391.576 354.064,387.777 345.355,376.094 335.368 C 365.914 326.667,347.890 324.029,332.756 329.024 C 326.738 331.010,315.721 339.562,298.777 355.400 C 295.277 358.672,288.544 364.823,277.691 374.662 C 274.331 377.708,268.301 383.220,264.291 386.912 C 260.281 390.603,254.844 395.553,252.208 397.912 C 249.573 400.270,245.537 403.975,243.239 406.145 C 229.710 418.918,218.982 427.050,211.506 430.197 C 190.210 439.163,179.659 439.597,159.819 432.321 C 140.780 425.339,127.588 411.744,121.664 393.000 C 115.957 374.943,115.954 369.232,121.643 351.600 C 125.583 339.387,131.983 330.198,144.147 319.287 C 147.020 316.709,151.268 312.811,153.586 310.625 C 170.760 294.428,172.952 294.279,186.335 308.400 C 206.588 329.771,212.917 334.334,226.000 337.002 C 252.414 342.387,280.000 315.841,275.400 289.464 C 273.468 278.382,268.155 269.884,252.356 252.597 C 243.234 242.616,241.776 240.116,242.096 235.000 C 242.348 230.974,242.955 230.084,250.135 223.215 C 266.941 207.136,272.694 200.781,278.129 192.291 C 279.928 189.482,282.333 185.737,283.473 183.971 C 284.613 182.204,286.001 179.553,286.558 178.079 C 287.115 176.606,288.678 172.520,290.032 169.000 C 296.499 152.187,296.622 151.631,297.245 136.447 C 298.045 116.957,296.997 104.531,293.826 95.884 C 285.999 74.546,285.780 74.076,278.696 63.400 C 270.848 51.574,259.237 39.274,250.101 33.109 C 237.895 24.874,233.989 22.665,227.851 20.529 C 225.623 19.754,220.741 17.946,217.003 16.512 C 204.218 11.607,186.740 9.394,170.600 10.637 M188.079 98.000 C 200.160 102.008,205.664 107.688,209.826 120.448 C 213.107 130.508,208.767 142.945,198.418 153.134 C 181.251 170.037,177.190 170.613,164.742 157.908 C 148.591 141.424,145.126 128.596,152.678 113.242 C 155.985 106.520,157.992 104.625,166.000 100.667 C 175.793 95.826,179.993 95.319,188.079 98.000 " stroke="none" fill="#ec4c14" fill-rule="evenodd"></path><path id="path1" d="M0.000 266.400 L 0.000 532.800 200.000 532.800 L 400.000 532.800 400.000 266.400 L 400.000 0.000 200.000 0.000 L 0.000 0.000 0.000 266.400 M197.530 11.412 C 204.511 12.236,208.751 13.347,217.003 16.512 C 220.741 17.946,225.623 19.754,227.851 20.529 C 233.989 22.665,237.895 24.874,250.101 33.109 C 259.237 39.274,270.848 51.574,278.696 63.400 C 285.780 74.076,285.999 74.546,293.826 95.884 C 296.997 104.531,298.045 116.957,297.245 136.447 C 296.622 151.631,296.499 152.187,290.032 169.000 C 288.678 172.520,287.115 176.606,286.558 178.079 C 286.001 179.553,284.613 182.204,283.473 183.971 C 282.333 185.737,279.928 189.482,278.129 192.291 C 272.694 200.781,266.941 207.136,250.135 223.215 C 238.417 234.426,238.657 237.608,252.356 252.597 C 268.155 269.884,273.468 278.382,275.400 289.464 C 280.000 315.841,252.414 342.387,226.000 337.002 C 212.917 334.334,206.588 329.771,186.335 308.400 C 172.952 294.279,170.760 294.428,153.586 310.625 C 151.268 312.811,147.020 316.709,144.147 319.287 C 131.983 330.198,125.583 339.387,121.643 351.600 C 115.954 369.232,115.957 374.943,121.664 393.000 C 127.588 411.744,140.780 425.339,159.819 432.321 C 179.659 439.597,190.210 439.163,211.506 430.197 C 218.982 427.050,229.710 418.918,243.239 406.145 C 245.537 403.975,249.573 400.270,252.208 397.912 C 254.844 395.553,260.281 390.603,264.291 386.912 C 268.301 383.220,274.331 377.708,277.691 374.662 C 288.544 364.823,295.277 358.672,298.777 355.400 C 315.721 339.562,326.738 331.010,332.756 329.024 C 347.890 324.029,365.914 326.667,376.094 335.368 C 387.777 345.355,391.576 354.064,391.083 369.732 C 390.580 385.737,385.871 393.540,366.600 410.308 C 363.960 412.605,361.471 414.870,361.069 415.342 C 360.668 415.814,357.833 418.450,354.770 421.200 C 346.406 428.710,338.074 436.329,331.600 442.385 C 328.410 445.369,324.270 449.152,322.400 450.792 C 320.530 452.431,318.275 454.499,317.388 455.386 C 316.502 456.274,314.342 458.257,312.588 459.792 C 310.835 461.328,307.240 464.571,304.600 466.999 C 283.609 486.300,269.588 497.268,258.144 503.339 C 255.095 504.957,251.696 506.838,250.590 507.519 C 247.020 509.719,243.492 511.163,235.769 513.582 C 231.606 514.887,225.542 516.861,222.292 517.971 C 211.029 521.817,205.714 522.398,181.800 522.399 C 159.277 522.399,153.988 521.705,140.657 516.997 C 137.325 515.821,132.080 514.109,129.000 513.193 C 122.565 511.280,119.063 509.752,114.112 506.696 C 112.180 505.504,108.800 503.604,106.600 502.475 C 97.655 497.882,77.999 482.820,72.828 476.596 C 72.042 475.651,69.846 473.156,67.946 471.053 C 63.426 466.046,55.324 454.873,52.466 449.702 C 51.219 447.448,48.718 442.951,46.907 439.709 C 45.095 436.467,43.182 432.551,42.654 431.007 C 31.734 399.060,31.518 397.915,31.444 371.400 C 31.383 349.835,31.923 345.788,36.807 331.200 C 38.317 326.690,40.290 320.619,41.191 317.708 C 42.872 312.279,44.168 309.499,49.074 300.800 C 50.625 298.050,52.556 294.586,53.366 293.102 C 54.175 291.618,55.965 288.918,57.343 287.102 C 58.721 285.286,60.452 282.915,61.189 281.834 C 64.702 276.680,76.700 264.187,89.200 252.668 C 103.273 239.698,109.600 232.743,109.600 230.243 C 109.600 227.574,104.582 220.105,98.060 213.065 C 92.584 207.154,85.084 197.966,82.991 194.603 C 81.896 192.844,79.703 189.479,78.118 187.124 C 74.475 181.714,73.781 180.316,71.202 173.200 C 70.046 170.010,68.208 165.270,67.119 162.668 C 63.043 152.931,62.395 148.118,62.383 127.466 C 62.369 105.897,62.679 103.813,67.902 90.337 C 69.636 85.862,71.646 80.580,72.369 78.600 C 75.860 69.030,89.463 50.104,98.419 42.355 C 99.789 41.170,102.281 38.979,103.955 37.486 C 110.447 31.700,124.470 23.192,131.806 20.590 C 134.496 19.636,138.950 17.955,141.703 16.854 C 151.999 12.739,156.851 11.695,170.600 10.637 C 174.872 10.308,192.466 10.815,197.530 11.412 M174.400 97.000 C 164.434 99.726,156.355 105.767,152.678 113.242 C 145.126 128.596,148.591 141.424,164.742 157.908 C 177.190 170.613,181.251 170.037,198.418 153.134 C 212.412 139.355,214.565 123.658,204.478 108.935 C 198.764 100.595,183.459 94.522,174.400 97.000 " stroke="none" fill="#f2f2f2" fill-rule="evenodd"></path></g></svg>