<svg id="svg" version="1.1" xmlns="http://www.w3.org/2000/svg" xmlns:xlink="http://www.w3.org/1999/xlink" width="400" height="400" viewBox="0, 0, 400,400"><g id="svgg"><path id="path0" d="M130.991 122.391 C 120.304 123.983,108.715 133.568,105.350 143.600 C 104.441 146.310,103.946 241.447,104.797 249.798 C 106.200 263.553,116.094 274.938,129.200 277.875 C 132.973 278.721,256.916 279.202,266.137 278.407 C 278.460 277.344,288.058 270.807,293.172 259.993 C 295.930 254.161,295.800 257.226,295.800 198.200 L 295.800 145.000 294.896 142.600 C 291.848 134.506,281.753 125.591,272.600 122.909 C 270.045 122.160,135.836 121.670,130.991 122.391 M266.972 140.343 C 271.488 141.396,273.151 143.006,272.624 145.815 C 272.051 148.868,261.686 157.733,250.292 164.917 C 246.115 167.551,239.251 172.360,233.031 177.013 C 225.480 182.661,206.042 195.393,203.688 196.234 C 199.924 197.577,197.031 196.824,191.115 192.957 C 176.618 183.483,171.422 179.982,168.526 177.736 C 164.486 174.603,158.243 170.218,151.400 165.705 C 124.219 147.780,120.917 141.043,138.800 139.996 C 147.343 139.496,264.699 139.814,266.972 140.343 M131.000 170.142 C 133.577 171.346,140.662 175.923,144.000 178.540 C 147.712 181.451,155.744 187.118,161.800 191.101 C 167.120 194.599,176.088 201.013,181.800 205.404 C 196.843 216.970,203.282 217.044,218.125 205.821 C 224.968 200.647,234.580 193.793,238.800 191.079 C 243.180 188.261,246.927 185.620,255.000 179.658 C 273.044 166.333,276.705 166.109,278.020 178.249 C 278.647 184.031,278.305 250.732,277.636 253.284 C 276.749 256.666,274.628 258.925,271.247 260.090 C 269.271 260.771,135.143 261.058,131.200 260.390 C 126.225 259.547,123.715 257.099,122.831 252.227 C 122.230 248.916,122.235 179.040,122.836 175.786 C 123.922 169.911,126.577 168.076,131.000 170.142 " stroke="none" fill="#ffffff" fill-rule="evenodd"></path><path id="path1" d="M0.000 200.000 L 0.000 400.000 200.000 400.000 L 400.000 400.000 400.000 200.000 L 400.000 0.000 200.000 0.000 L 0.000 0.000 0.000 200.000 M214.200 11.188 C 217.060 11.638,222.460 12.626,226.200 13.384 C 229.940 14.142,236.060 15.226,239.800 15.792 C 253.307 17.838,256.133 18.569,262.919 21.773 C 265.074 22.791,269.038 24.337,271.728 25.208 C 274.417 26.079,278.144 27.601,280.009 28.589 C 281.874 29.578,286.280 31.852,289.800 33.643 C 293.320 35.433,297.640 37.931,299.400 39.193 C 301.160 40.455,304.128 42.431,305.996 43.584 C 323.426 54.342,343.579 74.066,355.057 91.600 C 356.281 93.470,358.969 97.520,361.030 100.600 C 363.090 103.680,365.767 108.270,366.977 110.800 C 368.187 113.330,370.168 117.200,371.379 119.400 C 372.625 121.663,374.218 125.398,375.047 128.000 C 375.854 130.530,377.559 134.861,378.837 137.625 C 381.788 144.005,382.424 146.392,384.377 158.400 C 385.254 163.790,386.435 170.450,387.001 173.200 C 391.443 194.777,391.480 204.043,387.211 226.200 C 386.364 230.600,385.282 236.630,384.808 239.600 C 382.498 254.075,381.939 256.247,378.809 262.934 C 377.762 265.170,376.162 269.250,375.252 272.000 C 374.342 274.750,372.879 278.350,372.000 280.000 C 371.121 281.650,368.946 285.880,367.167 289.400 C 365.387 292.920,362.716 297.510,361.231 299.600 C 359.746 301.690,357.782 304.691,356.866 306.268 C 355.951 307.845,354.570 309.964,353.798 310.976 C 353.026 311.987,351.198 314.477,349.737 316.508 C 346.721 320.700,345.936 321.608,338.499 329.503 C 327.968 340.684,316.178 350.695,306.600 356.590 C 304.840 357.673,301.690 359.755,299.600 361.218 C 294.161 365.023,277.884 373.258,271.856 375.255 C 269.185 376.140,265.290 377.677,263.200 378.672 C 256.257 381.975,255.092 382.280,239.977 384.755 C 234.575 385.640,228.519 386.728,226.521 387.173 C 206.955 391.531,196.420 391.538,174.200 387.204 C 168.700 386.132,161.060 384.777,157.222 384.194 C 147.661 382.742,143.504 381.609,137.626 378.849 C 134.862 377.552,130.530 375.835,128.000 375.034 C 125.373 374.203,121.684 372.635,119.400 371.380 C 117.200 370.171,113.240 368.134,110.600 366.853 C 105.865 364.556,96.514 358.599,86.848 351.723 C 71.947 341.121,52.094 320.190,43.671 306.200 C 42.479 304.220,40.416 301.091,39.086 299.246 C 37.756 297.401,35.687 293.891,34.489 291.446 C 33.291 289.001,31.167 284.930,29.770 282.400 C 28.143 279.452,26.578 275.832,25.414 272.321 C 24.415 269.307,22.701 264.955,21.605 262.650 C 18.956 257.074,17.882 253.184,16.439 243.933 C 15.775 239.680,14.766 233.770,14.196 230.800 C 8.930 203.348,8.840 196.982,13.396 174.000 C 14.159 170.150,15.511 162.552,16.400 157.115 C 18.224 145.959,18.940 143.300,21.478 138.246 C 22.460 136.291,24.072 132.241,25.062 129.246 C 26.083 126.153,27.912 121.812,29.294 119.200 C 30.632 116.670,32.796 112.440,34.102 109.800 C 35.408 107.160,37.684 103.290,39.159 101.200 C 40.634 99.110,42.719 95.974,43.791 94.232 C 50.087 84.006,59.129 73.385,71.446 61.749 C 80.456 53.237,82.877 51.311,92.600 44.930 C 95.020 43.342,98.800 40.792,101.000 39.263 C 103.200 37.735,107.160 35.414,109.800 34.106 C 112.440 32.797,116.670 30.629,119.200 29.288 C 121.854 27.880,126.112 26.086,129.264 25.047 C 132.269 24.056,136.139 22.538,137.864 21.674 C 142.977 19.113,146.696 18.101,157.333 16.377 C 162.870 15.480,171.450 13.960,176.400 13.000 C 181.350 12.040,187.110 11.062,189.200 10.827 C 191.290 10.592,193.540 10.324,194.200 10.231 C 197.053 9.830,209.287 10.416,214.200 11.188 " stroke="none" fill="#ffffff" fill-rule="evenodd"></path><path id="path2" d="M194.200 10.231 C 193.540 10.324,191.290 10.592,189.200 10.827 C 187.110 11.062,181.350 12.040,176.400 13.000 C 171.450 13.960,162.870 15.480,157.333 16.377 C 146.696 18.101,142.977 19.113,137.864 21.674 C 136.139 22.538,132.269 24.056,129.264 25.047 C 126.112 26.086,121.854 27.880,119.200 29.288 C 116.670 30.629,112.440 32.797,109.800 34.106 C 107.160 35.414,103.200 37.735,101.000 39.263 C 98.800 40.792,95.020 43.342,92.600 44.930 C 82.877 51.311,80.456 53.237,71.446 61.749 C 59.129 73.385,50.087 84.006,43.791 94.232 C 42.719 95.974,40.634 99.110,39.159 101.200 C 37.684 103.290,35.408 107.160,34.102 109.800 C 32.796 112.440,30.632 116.670,29.294 119.200 C 27.912 121.812,26.083 126.153,25.062 129.246 C 24.072 132.241,22.460 136.291,21.478 138.246 C 18.940 143.300,18.224 145.959,16.400 157.115 C 15.511 162.552,14.159 170.150,13.396 174.000 C 8.840 196.982,8.930 203.348,14.196 230.800 C 14.766 233.770,15.775 239.680,16.439 243.933 C 17.882 253.184,18.956 257.074,21.605 262.650 C 22.701 264.955,24.415 269.307,25.414 272.321 C 26.578 275.832,28.143 279.452,29.770 282.400 C 31.167 284.930,33.291 289.001,34.489 291.446 C 35.687 293.891,37.756 297.401,39.086 299.246 C 40.416 301.091,42.479 304.220,43.671 306.200 C 49.972 316.666,68.450 337.335,79.448 346.222 C 87.038 352.354,104.357 363.824,110.600 366.853 C 113.240 368.134,117.200 370.171,119.400 371.380 C 121.684 372.635,125.373 374.203,128.000 375.034 C 130.530 375.835,134.862 377.552,137.626 378.849 C 143.504 381.609,147.661 382.742,157.222 384.194 C 161.060 384.777,168.700 386.132,174.200 387.204 C 196.420 391.538,206.955 391.531,226.521 387.173 C 228.519 386.728,234.575 385.640,239.977 384.755 C 255.092 382.280,256.257 381.975,263.200 378.672 C 265.290 377.677,269.185 376.140,271.856 375.255 C 277.884 373.258,294.161 365.023,299.600 361.218 C 301.690 359.755,304.840 357.673,306.600 356.590 C 316.178 350.695,327.968 340.684,338.499 329.503 C 345.936 321.608,346.721 320.700,349.737 316.508 C 351.198 314.477,353.026 311.987,353.798 310.976 C 354.570 309.964,355.951 307.845,356.866 306.268 C 357.782 304.691,359.746 301.690,361.231 299.600 C 362.716 297.510,365.387 292.920,367.167 289.400 C 368.946 285.880,371.121 281.650,372.000 280.000 C 372.879 278.350,374.342 274.750,375.252 272.000 C 376.162 269.250,377.762 265.170,378.809 262.934 C 381.939 256.247,382.498 254.075,384.808 239.600 C 385.282 236.630,386.364 230.600,387.211 226.200 C 391.480 204.043,391.443 194.777,387.001 173.200 C 386.435 170.450,385.254 163.790,384.377 158.400 C 382.424 146.392,381.788 144.005,378.837 137.625 C 377.559 134.861,375.854 130.530,375.047 128.000 C 374.218 125.398,372.625 121.663,371.379 119.400 C 370.168 117.200,368.187 113.330,366.977 110.800 C 365.767 108.270,363.090 103.680,361.030 100.600 C 358.969 97.520,356.281 93.470,355.057 91.600 C 343.579 74.066,323.426 54.342,305.996 43.584 C 304.128 42.431,301.160 40.455,299.400 39.193 C 297.640 37.931,293.320 35.433,289.800 33.643 C 286.280 31.852,281.874 29.578,280.009 28.589 C 278.144 27.601,274.417 26.079,271.728 25.208 C 269.038 24.337,265.074 22.791,262.919 21.773 C 256.133 18.569,253.307 17.838,239.800 15.792 C 236.060 15.226,229.940 14.142,226.200 13.384 C 212.988 10.707,199.953 9.423,194.200 10.231 M272.600 122.909 C 281.753 125.591,291.848 134.506,294.896 142.600 L 295.800 145.000 295.800 198.200 C 295.800 257.226,295.930 254.161,293.172 259.993 C 288.058 270.807,278.460 277.344,266.137 278.407 C 256.916 279.202,132.973 278.721,129.200 277.875 C 116.094 274.938,106.200 263.553,104.797 249.798 C 103.946 241.447,104.441 146.310,105.350 143.600 C 108.715 133.568,120.304 123.983,130.991 122.391 C 135.836 121.670,270.045 122.160,272.600 122.909 M138.800 139.996 C 120.917 141.043,124.219 147.780,151.400 165.705 C 158.243 170.218,164.486 174.603,168.526 177.736 C 171.422 179.982,176.618 183.483,191.115 192.957 C 197.031 196.824,199.924 197.577,203.688 196.234 C 206.042 195.393,225.480 182.661,233.031 177.013 C 239.251 172.360,246.115 167.551,250.292 164.917 C 261.686 157.733,272.051 148.868,272.624 145.815 C 273.151 143.006,271.488 141.396,266.972 140.343 C 264.699 139.814,147.343 139.496,138.800 139.996 M126.123 169.787 C 122.481 171.370,122.400 172.337,122.400 214.000 C 122.400 256.552,122.377 256.320,126.911 258.964 C 130.134 260.844,129.842 260.837,201.800 260.709 C 274.038 260.581,271.104 260.663,274.038 258.686 C 278.202 255.880,278.105 256.833,278.289 216.800 C 278.545 161.311,278.956 161.967,255.000 179.658 C 246.927 185.620,243.180 188.261,238.800 191.079 C 234.580 193.793,224.968 200.647,218.125 205.821 C 203.282 217.044,196.843 216.970,181.800 205.404 C 176.088 201.013,167.120 194.599,161.800 191.101 C 155.744 187.118,147.712 181.451,144.000 178.540 C 135.122 171.579,128.950 168.557,126.123 169.787 " stroke="none" fill="#eb1b0b" fill-rule="evenodd"></path></g></svg>